<svg height='100px' width='100px'  fill="#000000" xmlns:x="http://ns.adobe.com/Extensibility/1.0/" xmlns:i="http://ns.adobe.com/AdobeIllustrator/10.0/" xmlns:graph="http://ns.adobe.com/Graphs/1.0/" xmlns="http://www.w3.org/2000/svg" xmlns:xlink="http://www.w3.org/1999/xlink" version="1.1" x="0px" y="0px" viewBox="0 0 100 100" enable-background="new 0 0 100 100" xml:space="preserve"><g><g i:extraneous="self"><path d="M72.4,57.1l-1.5,5.8c0,0-0.4,1.1-1.4,2.3c-1,1.2-1.7,2.3-1.7,2.3s-1.1,2.1-2.2,2.7c-1.1,0.6-1.1,8.5-1.1,8.5v11.2    c0,0-0.3,2.2-0.5,3.4c-0.1,0.6-0.1,1.3-0.1,1.9c0,0.7-0.6,1.4-1.3,1.4H31.7c0,0-1-0.7-0.7-3.9c0.3-3.2,2.3-15.7,3-21l0.4-1.8    c0,0,0-0.3-0.3-1.1c-0.3-0.8-6.1-8.3-8.8-13s-9.4-12.8-9.4-12.8s-1.9-2.5-1.3-4.5c0.6-2,7.1-14.8,12.6-20c0,0,1.4-2,4.8-0.6    s9.6,3.6,17.5,7.5c0,0,1.6,0.3,1.3,2.4c-0.3,2.1-0.2,4-2.3,4.9c-2.1,0.9-4.9,2.5-8.5,2.3c0,0-0.6,0.3-1.5-0.6    c-0.7-0.7-2.6-3-4-4.1c-0.4-0.3-0.9,0-0.8,0.5c0.2,1.9,0.2,5.5-3.8,6.4c0,0,0.2,0.9,1.6,1.1c1.4,0.2,2.4,0.6,3.6,1.4    c0,0,2.6,0.6,3.5,1c0.9,0.4,1.6,1.6,1.6,1.6l13.6,20.2c0,0,0.4,1.9-5.6,4.5c-0.2,0.1-0.2,0.4,0.1,0.4c0.6,0.1,1.5,0.2,2.7,0.2    c0.6,0,1.2,0.4,1.3,1.1c0.5,2.4,1.6,8,1.4,9.9c-0.2,2.4,0.3,3.3,0.3,3.3l0.4,5.8c0,0.3,0.5,0.3,0.5,0c0-1.6,0-3-0.1-3.7    c-0.3-1.7-0.3-13.1-0.3-13.1s-0.4-1.1,1.3-1.9c0.6-0.3,1.2-0.6,1.7-0.9c0.5-0.3,0.5-1.1-0.1-1.3c-0.5-0.2-0.9-0.4-1.2-0.7    c-0.8-0.8-2.1-4.9-2.1-4.9l-2.5-7.1l-8.3-10.3c-0.2-0.3,0-0.7,0.4-0.6l13.2,2.8l6.5,6.2c0.6,0.5,1.4,0.7,2.1,0.3l0.1-0.1l10.3-9.5    L72.4,57.1z"></path><path d="M50.4,34.2l-5.2,6.6c-0.4,0.5-1,0.6-1.6,0.3c-1.9-1-6-3.2-7.2-4.4c-1.6-1.6,0.9-2.8,1.7-1.8c0.8,1,0.7,2.3,3.9,1.5    C45.1,35.8,50.4,34.2,50.4,34.2z"></path><path d="M76.7,33.3l2.6,2.7c0.6,0.6,0.6,1.6,0,2.2L65.8,51c-0.7,0.7-1.9,0.7-2.7,0l-3.3-3.2c-0.7-0.7-0.7-1.3,0-2.1L72,31.1    c0.6-0.6,1.5-0.7,2.2-0.1L76.7,33.3z"></path><path d="M70.8,30.2L59.1,44.5c-0.8,0.9-2.1,1.2-3.1,0.6l-5.8-3c-1.4-0.7-1.8-2.5-0.9-3.7l11.9-16.6c0.9-1.3,2.7-1.4,3.8-0.4    l5.5,5.3C71.5,27.7,71.6,29.2,70.8,30.2z"></path><path d="M47.6,23.6l-2.1-1c-0.7-0.4-1-1.3-0.6-2c1.2-1.8,3.2-5,3.9-6.1c0.4-0.6,0.9-1.7,1.4-2.7c0.8-1.5,2.7-2,4.1-1.2l5.9,3.5    c1.9,1.1,2,3.6,0.8,5.4c-1.2,1.8-2.2,4-3.2,5.4c-1.8,2.5-4.5,5.8-5.9,7.2c-0.2,0.2-0.6,0.1-0.6-0.2c-0.1-1-0.2-2.8,0.4-4.8    c0,0,0.8-1.2-0.7-2S47.6,23.6,47.6,23.6z"></path><path d="M49.4,12.3l-5.8,8.1c-0.5,0.7-1.5,1-2.3,0.6L33,17c-0.7-0.3-0.9-1.2-0.4-1.8c0.9-1.2,2.2-2.9,2.8-4c0.6-1,2-3.3,3.2-5.2    c0.9-1.4,2.8-1.8,4.2-0.9l5.9,3.9C49.9,9.7,50.2,11.2,49.4,12.3z"></path></g></g></svg>